<?xml version="1.0" standalone="no"?>
<!DOCTYPE svg PUBLIC "-//W3C//DTD SVG 20010904//EN"
 "http://www.w3.org/TR/2001/REC-SVG-20010904/DTD/svg10.dtd">
<svg version="1.0" xmlns="http://www.w3.org/2000/svg"
 width="446.000000pt" height="446.000000pt" viewBox="0 0 446.000000 446.000000"
 preserveAspectRatio="xMidYMid meet">
<metadata>
Created by potrace 1.14, written by Peter Selinger 2001-2017
</metadata>
<g transform="translate(0.000000,446.000000) scale(0.100000,-0.100000)"
fill="#000000" stroke="none">
<path d="M2039 4446 c-2 -2 -35 -7 -74 -11 -421 -39 -851 -251 -1110 -546 -68
-77 -79 -92 -132 -174 -29 -44 -57 -85 -63 -92 -5 -7 -10 -14 -10 -17 0 -2
-23 -40 -52 -82 -191 -290 -332 -568 -367 -729 -20 -90 -21 -99 -22 -172 0
-90 22 -165 70 -240 51 -79 119 -131 267 -202 207 -100 276 -187 277 -351 1
-47 -2 -98 -5 -115 -18 -87 -33 -142 -69 -258 -113 -358 -124 -508 -50 -670
48 -103 225 -311 347 -405 130 -101 318 -204 474 -260 102 -37 266 -80 335
-88 28 -4 53 -8 57 -10 14 -9 177 -18 303 -18 140 0 258 9 333 24 26 5 58 12
72 14 185 31 462 140 620 243 191 125 321 255 457 456 50 73 155 216 234 318
79 101 160 209 180 239 192 292 184 516 -26 725 -80 81 -112 108 -175 150
-325 215 -412 402 -323 695 16 54 81 225 108 285 68 152 91 338 54 448 -27 80
-59 134 -138 232 -79 98 -132 151 -236 233 -102 80 -92 73 -215 144 -102 59
-222 110 -360 151 -100 31 -156 43 -330 73 -40 6 -425 16 -431 10z"/>
</g>
</svg>
