<svg width="406" height="446" viewBox="0 0 406 446" fill="none" xmlns="http://www.w3.org/2000/svg">
<path d="M349.421 74.7307C318.18 25.8502 259.559 1.44945 201 1.44945C142.441 1.44945 83.82 25.8502 52.5787 74.7307C50.2106 78.4359 47.718 82.2698 45.1598 86.2046C30.3576 108.972 13.3595 135.118 5.57762 159.234C1.01131 173.385 -0.408721 186.911 3.70426 198.685C7.82486 210.481 17.4647 220.424 34.812 227.463C51.9543 234.42 59.6952 243.801 62.24 254.65C64.7981 265.557 62.136 278.049 58.2088 291.288C57.1501 294.857 55.9994 298.48 54.8381 302.136C51.7067 311.996 48.4986 322.097 46.8125 332.025C44.497 345.659 45.0279 359.073 52.5749 371.263C83.1139 420.592 142.091 445.214 201 445.214C259.909 445.214 318.886 420.592 349.425 371.263C355.701 361.126 363.634 351.183 371.528 341.288C372.99 339.455 374.45 337.624 375.899 335.794C385.155 324.101 393.916 312.438 399.267 300.637C404.625 288.822 406.585 276.826 402.182 264.493C397.784 252.177 387.071 239.613 367.275 226.582C347.592 213.627 338.712 200.871 335.874 188.285C333.032 175.681 336.223 163.145 340.915 150.562C342.406 146.564 344.041 142.579 345.678 138.59C346.619 136.297 347.561 134.002 348.476 131.701C350.979 125.413 353.274 119.111 354.77 112.801C357.766 100.165 357.563 87.4698 349.421 74.7307Z" fill="black" stroke="black"/>
<path d="M122.45 221C122.25 229.2 121.65 236.9 120.65 244.1C119.75 251.3 118.75 256 117.65 258.2C116.45 259.7 115.15 260.45 113.75 260.45C112.45 260.45 111.8 260.3 111.8 260C113.2 250.7 113.9 241.95 113.9 233.75C113.9 204.55 109.5 185.55 100.7 176.75L106.85 166.7C112.85 171.8 121.65 175.4 133.25 177.5C137.65 178.3 141.9 179.2 146 180.2C154.8 182.2 159.2 186.15 159.2 192.05C159.2 194.65 157.85 197.35 155.15 200.15C152.55 202.95 149.5 205.4 146 207.5C139.7 211.3 135.05 213.75 132.05 214.85C144.45 215.75 153.85 218.95 160.25 224.45C166.65 229.95 169.85 236.55 169.85 244.25C169.85 251.95 166.15 258.7 158.75 264.5C151.45 270.3 140.9 273.2 127.1 273.2C118 273.2 109.55 272.35 101.75 270.65C100.25 269.15 99.5 267.7 99.5 266.3C99.5 264.9 99.65 264.2 99.95 264.2C100.25 264.2 101.15 264.4 102.65 264.8C107.55 265.9 112.6 266.45 117.8 266.45C128.2 266.45 136.65 264.3 143.15 260C149.75 255.6 153.05 249.7 153.05 242.3C153.05 238 151.3 234.2 147.8 230.9C141.5 225 133.05 221.7 122.45 221ZM120.2 184.1C121.8 188.2 122.6 196.85 122.6 210.05C128.1 207.85 132.75 205.15 136.55 201.95C140.35 198.65 142.25 196.1 142.25 194.3C142.25 192.5 140.9 191.05 138.2 189.95C135.6 188.75 132.3 187.7 128.3 186.8C124.3 185.8 121.6 184.9 120.2 184.1Z" fill="white"/>
<path d="M191.568 269.75L191.418 270.8C190.818 271.4 189.718 271.95 188.118 272.45C186.618 272.95 185.418 273.2 184.518 273.2C183.718 273.2 183.318 273 183.318 272.6C185.718 258.2 186.918 241.45 186.918 222.35C186.918 203.15 185.818 185.75 183.618 170.15L187.518 167.45L200.868 174.35C199.168 211.25 196.568 240.45 193.068 261.95C194.468 261.95 195.818 261.95 197.118 261.95C212.118 261.95 224.518 259.4 234.318 254.3L236.868 258.2L231.918 271.1C226.618 271.6 220.568 271.85 213.768 271.85C206.968 271.85 199.568 271.15 191.568 269.75Z" fill="white"/>
<path d="M291.75 170.3C291.25 175.6 291 181.2 291 187.1C291 211.4 295.5 240.25 304.5 273.65C304.2 273.85 310.5 290.9 310 291C307.4 291 298.75 273.35 297.45 271.85C294.05 264.65 290.35 254.05 286.35 240.05C279.55 241.15 273.2 241.7 267.3 241.7C261.5 241.7 257.45 241.6 255.15 241.4C250.45 251.2 245.2 261.35 239.4 271.85C237.6 273.35 235.75 274.1 233.85 274.1C231.95 274.1 231 273.95 231 273.65C234.8 266.15 239.8 255 246 240.2C244.8 240 242.9 239.6 240.3 239C238.8 237.4 238.05 235.2 238.05 232.4C238.05 231.7 238.2 231.35 238.5 231.35C238.8 231.35 239.4 231.5 240.3 231.8C242.4 232.4 245.2 232.9 248.7 233.3C258.3 209.8 264.95 190.75 268.65 176.15L285.15 167.45C287.95 167.45 290.15 168.4 291.75 170.3ZM258.75 233.75C268.15 233.55 276.5 232.4 283.8 230.3C279.7 214.8 277.1 201.6 276 190.7C270.3 206.4 264.55 220.75 258.75 233.75Z" fill="white"/>
<path d="M122.45 221C122.25 229.2 121.65 236.9 120.65 244.1C119.75 251.3 118.75 256 117.65 258.2C116.45 259.7 115.15 260.45 113.75 260.45C112.45 260.45 111.8 260.3 111.8 260C113.2 250.7 113.9 241.95 113.9 233.75C113.9 204.55 109.5 185.55 100.7 176.75L106.85 166.7C112.85 171.8 121.65 175.4 133.25 177.5C137.65 178.3 141.9 179.2 146 180.2C154.8 182.2 159.2 186.15 159.2 192.05C159.2 194.65 157.85 197.35 155.15 200.15C152.55 202.95 149.5 205.4 146 207.5C139.7 211.3 135.05 213.75 132.05 214.85C144.45 215.75 153.85 218.95 160.25 224.45C166.65 229.95 169.85 236.55 169.85 244.25C169.85 251.95 166.15 258.7 158.75 264.5C151.45 270.3 140.9 273.2 127.1 273.2C118 273.2 109.55 272.35 101.75 270.65C100.25 269.15 99.5 267.7 99.5 266.3C99.5 264.9 99.65 264.2 99.95 264.2C100.25 264.2 101.15 264.4 102.65 264.8C107.55 265.9 112.6 266.45 117.8 266.45C128.2 266.45 136.65 264.3 143.15 260C149.75 255.6 153.05 249.7 153.05 242.3C153.05 238 151.3 234.2 147.8 230.9C141.5 225 133.05 221.7 122.45 221ZM120.2 184.1C121.8 188.2 122.6 196.85 122.6 210.05C128.1 207.85 132.75 205.15 136.55 201.95C140.35 198.65 142.25 196.1 142.25 194.3C142.25 192.5 140.9 191.05 138.2 189.95C135.6 188.75 132.3 187.7 128.3 186.8C124.3 185.8 121.6 184.9 120.2 184.1Z" stroke="white" stroke-width="10"/>
<path d="M191.568 269.75L191.418 270.8C190.818 271.4 189.718 271.95 188.118 272.45C186.618 272.95 185.418 273.2 184.518 273.2C183.718 273.2 183.318 273 183.318 272.6C185.718 258.2 186.918 241.45 186.918 222.35C186.918 203.15 185.818 185.75 183.618 170.15L187.518 167.45L200.868 174.35C199.168 211.25 196.568 240.45 193.068 261.95C194.468 261.95 195.818 261.95 197.118 261.95C212.118 261.95 224.518 259.4 234.318 254.3L236.868 258.2L231.918 271.1C226.618 271.6 220.568 271.85 213.768 271.85C206.968 271.85 199.568 271.15 191.568 269.75Z" stroke="white" stroke-width="10"/>
<path d="M291.75 170.3C291.25 175.6 291 181.2 291 187.1C291 211.4 295.5 240.25 304.5 273.65C304.2 273.85 310.5 290.9 310 291C307.4 291 298.75 273.35 297.45 271.85C294.05 264.65 290.35 254.05 286.35 240.05C279.55 241.15 273.2 241.7 267.3 241.7C261.5 241.7 257.45 241.6 255.15 241.4C250.45 251.2 245.2 261.35 239.4 271.85C237.6 273.35 235.75 274.1 233.85 274.1C231.95 274.1 231 273.95 231 273.65C234.8 266.15 239.8 255 246 240.2C244.8 240 242.9 239.6 240.3 239C238.8 237.4 238.05 235.2 238.05 232.4C238.05 231.7 238.2 231.35 238.5 231.35C238.8 231.35 239.4 231.5 240.3 231.8C242.4 232.4 245.2 232.9 248.7 233.3C258.3 209.8 264.95 190.75 268.65 176.15L285.15 167.45C287.95 167.45 290.15 168.4 291.75 170.3ZM258.75 233.75C268.15 233.55 276.5 232.4 283.8 230.3C279.7 214.8 277.1 201.6 276 190.7C270.3 206.4 264.55 220.75 258.75 233.75Z" stroke="white" stroke-width="10"/>
</svg>
